<svg width="14" height="44" viewBox="0 0 14 44" fill="none" xmlns="http://www.w3.org/2000/svg">
<g id="globalnav_apple_image__b5er5ngrzxqq_large.svg" clip-path="url(#clip0_2_3384)">
<path id="Vector" d="M13.0728 17.5214C12.9798 17.5937 11.348 18.5129 11.348 20.5578C11.348 22.9229 13.4239 23.7595 13.4859 23.7801C13.4756 23.8317 13.1554 24.9265 12.3911 26.0419C11.7095 27.0231 10.9968 28.0042 9.91242 28.0042C8.82802 28.0042 8.54912 27.3742 7.29942 27.3742C6.08072 27.3742 5.64692 28.0249 4.65542 28.0249C3.66392 28.0249 2.97192 27.116 2.17672 26.0006C1.25752 24.6889 0.513916 22.6543 0.513916 20.723C0.513916 17.6246 2.52792 15.9824 4.51082 15.9824C5.56432 15.9824 6.44212 16.6744 7.10312 16.6744C7.73312 16.6744 8.71432 15.9411 9.91232 15.9411C10.3668 15.9412 11.9987 15.9826 13.0728 17.5214ZM9.34442 14.6296C9.84012 14.0409 10.1913 13.225 10.1913 12.4091C10.1913 12.2955 10.181 12.1819 10.1603 12.0889C9.35472 12.1199 8.39422 12.626 7.81582 13.2973C7.36142 13.8137 6.93792 14.6296 6.93792 15.4559C6.93792 15.5798 6.95862 15.7038 6.96892 15.7451C7.02052 15.7554 7.10322 15.7658 7.18582 15.7658C7.90882 15.7657 8.81762 15.2803 9.34442 14.6296Z" fill="white"/>
</g>
<defs>
<clipPath id="clip0_2_3384">
<rect width="14" height="44" fill="white"/>
</clipPath>
</defs>
</svg>
